<svg viewBox="0 0 24 24" xmlns="http://www.w3.org/2000/svg"><path d="m13 16h-6a1 1 0 0 0 0 2h6a1 1 0 0 0 0-2zm-4-6h2a1 1 0 0 0 0-2h-2a1 1 0 0 0 0 2zm12 2h-3v-9a1 1 0 0 0 -.5-.87 1 1 0 0 0 -1 0l-3 1.72-3-1.72a1 1 0 0 0 -1 0l-3 1.72-3-1.72a1 1 0 0 0 -1 0 1 1 0 0 0 -.5.87v16a3 3 0 0 0 3 3h14a3 3 0 0 0 3-3v-6a1 1 0 0 0 -1-1zm-16 8a1 1 0 0 1 -1-1v-14.27l2 1.14a1.08 1.08 0 0 0 1 0l3-1.72 3 1.72a1.08 1.08 0 0 0 1 0l2-1.14v14.27a3 3 0 0 0 .18 1zm15-1a1 1 0 0 1 -2 0v-5h2zm-7-7h-6a1 1 0 0 0 0 2h6a1 1 0 0 0 0-2z"/></svg>